<svg width="24" height="24" viewBox="0 0 24 24" style="background-color:white" fill="none" xmlns="http://www.w3.org/2000/svg">
<path d="M 10 1.7 L 6.2 3.3 L 6.4 4 L 10.3 2.4 L 10 1.7 Z" fill="black"/>
<path d="M 10.2 1.3 L 5.7 3.1 L 6.2 4.4 L 10.7 2.6 L 10.2 1.3 Z" fill="black"/>
<path d="M 10.3 1.1 L 5.6 3.1 L 6.2 4.6 L 10.9 2.6 L 10.3 1.1 Z" fill="black"/>
<path d="M 6 5.1 L 5.1 2.9 L 10.5 0.6 L 11.4 2.8 L 6 5.1 Z M 6 3.3 L 6.4 4.1 L 10.4 2.4 L 10 1.6 L 6 3.3 Z" fill="black"/>
<path d="M 10.3 1.1 L 5.5 3.1 L 6.2 4.6 L 10.9 2.6 L 10.3 1.1 Z" fill="black"/>
<path d="M 6 5.1 L 5.1 2.9 L 10.5 0.6 L 11.4 2.8 L 6 5.1 Z M 6 3.3 L 6.4 4.1 L 10.4 2.5 L 10.1 1.6 L 6 3.3 Z" fill="black"/>
<path d="M 5.9 5.2 L 4.9 2.8 L 10.5 0.5 L 11.5 2.9 L 5.9 5.2 Z M 6.2 3.3 L 6.4 4 L 10.3 2.4 L 10 1.7 L 6.2 3.3 Z" fill="black"/>
<path d="M 5.7 5.7 L 4.4 2.6 L 10.7 0 L 12 3.1 L 5.7 5.7 Z M 5.4 3 L 6.1 4.7 L 11 2.7 L 10.3 1 L 5.4 3 Z M 6.2 4.5 L 5.7 3.1 L 10.2 1.2 L 10.8 2.6 L 6.2 4.5 Z" fill="black"/>
<path d="M 3.3 6.2 L 1.7 10 L 2.3 10.2 L 3.9 6.4 L 3.3 6.2 Z" fill="black"/>
<path d="M 3.1 5.7 L 1.3 10.2 L 2.6 10.7 L 4.4 6.2 L 3.1 5.7 Z" fill="black"/>
<path d="M 3 5.5 L 1.1 10.2 L 2.6 10.8 L 4.5 6.2 L 3 5.5 Z" fill="black"/>
<path d="M 2.8 11.4 L 0.6 10.4 L 2.9 5.1 L 5.1 6 L 2.8 11.4 Z M 1.6 10 L 2.4 10.4 L 4.1 6.3 L 3.3 6 L 1.6 10 Z" fill="black"/>
<path d="M 3.1 5.5 L 1.1 10.2 L 2.6 10.9 L 4.6 6.2 L 3.1 5.5 Z" fill="black"/>
<path d="M 2.8 11.4 L 0.6 10.4 L 2.9 5 L 5.1 6 L 2.8 11.4 Z M 1.6 10 L 2.4 10.4 L 4.1 6.4 L 3.3 6 L 1.6 10 Z" fill="black"/>
<path d="M 2.9 11.5 L 0.5 10.5 L 2.8 4.9 L 5.2 5.9 L 2.9 11.5 Z M 1.7 10 L 2.4 10.3 L 4 6.4 L 3.3 6.1 L 1.7 10 Z" fill="black"/>
<path d="M 3.1 12 L 0 10.7 L 2.6 4.4 L 5.7 5.7 L 3.1 12 Z M 1 10.3 L 2.7 11 L 4.7 6.1 L 3 5.4 L 1 10.3 Z M 2.6 10.8 L 1.2 10.2 L 3.1 5.7 L 4.5 6.2 L 2.6 10.8 Z" fill="black"/>
<path d="M 20.7 6.2 L 20 6.4 L 21.6 10.3 L 22.3 10 L 20.7 6.2 Z" fill="black"/>
<path d="M 20.9 5.7 L 19.5 6.2 L 21.4 10.8 L 22.7 10.2 L 20.9 5.7 Z" fill="black"/>
<path d="M 20.9 5.6 L 19.4 6.2 L 21.4 10.9 L 22.9 10.3 L 20.9 5.6 Z" fill="black"/>
<path d="M 21.2 11.4 L 18.9 6 L 21.1 5.1 L 23.4 10.5 L 21.2 11.4 Z M 19.9 6.4 L 21.6 10.4 L 22.4 10.1 L 20.7 6.1 L 19.9 6.4 Z" fill="black"/>
<path d="M 20.9 5.5 L 19.4 6.2 L 21.4 10.9 L 22.9 10.3 L 20.9 5.5 Z" fill="black"/>
<path d="M 21.2 11.4 L 18.9 6 L 21.1 5.1 L 23.4 10.5 L 21.2 11.4 Z M 19.9 6.4 L 21.6 10.4 L 22.4 10.1 L 20.7 6 L 19.9 6.4 Z" fill="black"/>
<path d="M 21.1 11.5 L 18.8 5.9 L 21.2 4.9 L 23.5 10.5 L 21.1 11.5 Z M 20 6.4 L 21.6 10.3 L 22.3 10 L 20.7 6.2 L 20 6.4 Z" fill="black"/>
<path d="M 20.9 12 L 18.3 5.7 L 21.4 4.4 L 24 10.7 L 20.9 12 Z M 19.3 6.1 L 21.3 11 L 23 10.3 L 21 5.4 L 19.3 6.1 Z M 21.4 10.8 L 19.5 6.2 L 20.9 5.7 L 22.8 10.2 L 21.4 10.8 Z" fill="black"/>
<path d="M 14 1.7 L 13.8 2.4 L 17.6 4 L 17.8 3.3 L 14 1.7 Z" fill="black"/>
<path d="M 13.8 1.3 L 13.3 2.6 L 17.8 4.4 L 18.3 3.1 L 13.8 1.3 Z" fill="black"/>
<path d="M 13.8 1.1 L 13.1 2.6 L 17.8 4.6 L 18.5 3.1 L 13.8 1.1 Z" fill="black"/>
<path d="M 18 5.1 L 12.7 2.8 L 13.6 0.6 L 18.9 2.9 L 18 5.1 Z M 13.6 2.4 L 17.6 4.1 L 18 3.3 L 14 1.6 L 13.6 2.4 Z" fill="black"/>
<path d="M 13.8 1.1 L 13.1 2.6 L 17.8 4.6 L 18.5 3.1 L 13.8 1.1 Z" fill="black"/>
<path d="M 18 5.1 L 12.6 2.8 L 13.6 0.6 L 19 2.9 L 18 5.1 Z M 13.6 2.4 L 17.6 4.1 L 18 3.3 L 14 1.6 L 13.6 2.4 Z" fill="black"/>
<path d="M 18.1 5.2 L 12.5 2.9 L 13.5 0.5 L 19.1 2.8 L 18.1 5.2 Z M 13.7 2.4 L 17.6 4 L 17.9 3.3 L 14 1.7 L 13.7 2.4 Z" fill="black"/>
<path d="M 18.3 5.7 L 12 3.1 L 13.3 0 L 19.6 2.6 L 18.3 5.7 Z M 13 2.7 L 17.9 4.7 L 18.6 3 L 13.7 1 L 13 2.7 Z M 17.8 4.5 L 13.3 2.6 L 13.8 1.2 L 18.4 3.1 L 17.8 4.5 Z" fill="black"/>
<path d="M 17.6 20 L 13.7 21.6 L 14 22.3 L 17.8 20.7 L 17.6 20 Z" fill="black"/>
<path d="M 17.8 19.5 L 13.2 21.4 L 13.8 22.7 L 18.3 20.9 L 17.8 19.5 Z" fill="black"/>
<path d="M 17.8 19.4 L 13.1 21.4 L 13.7 22.9 L 18.4 20.9 L 17.8 19.4 Z" fill="black"/>
<path d="M 13.5 23.4 L 12.6 21.2 L 18 18.9 L 18.9 21.1 L 13.5 23.4 Z M 13.6 21.6 L 13.9 22.4 L 17.9 20.7 L 17.6 19.9 L 13.6 21.6 Z" fill="black"/>
<path d="M 17.8 19.4 L 13.1 21.4 L 13.7 22.9 L 18.5 20.9 L 17.8 19.4 Z" fill="black"/>
<path d="M 13.5 23.4 L 12.6 21.2 L 18 18.9 L 18.9 21.1 L 13.5 23.4 Z M 13.6 21.6 L 13.9 22.4 L 18 20.8 L 17.6 19.9 L 13.6 21.6 Z" fill="black"/>
<path d="M 18.1 18.8 L 19.1 21.2 L 13.5 23.5 L 12.5 21.1 L 18.1 18.8 Z M 17.8 20.7 L 17.6 20 L 13.7 21.6 L 14 22.3 L 17.8 20.7 Z" fill="black"/>
<path d="M 13.3 24 L 12 20.9 L 18.3 18.3 L 19.6 21.4 L 13.3 24 Z M 13 21.3 L 13.7 23 L 18.6 21 L 17.9 19.3 L 13 21.3 Z M 13.8 22.8 L 13.2 21.4 L 17.8 19.5 L 18.3 20.9 L 13.8 22.8 Z" fill="black"/>
<path d="M 21.6 13.8 L 20 17.6 L 20.7 17.8 L 22.3 14 L 21.6 13.8 Z" fill="black"/>
<path d="M 21.4 13.3 L 19.5 17.8 L 20.9 18.3 L 22.7 13.8 L 21.4 13.3 Z" fill="black"/>
<path d="M 21.4 13.1 L 19.4 17.8 L 20.9 18.5 L 22.9 13.8 L 21.4 13.1 Z" fill="black"/>
<path d="M 21.1 18.9 L 18.9 18 L 21.2 12.6 L 23.4 13.6 L 21.1 18.9 Z M 19.9 17.6 L 20.7 18 L 22.4 13.9 L 21.6 13.6 L 19.9 17.6 Z" fill="black"/>
<path d="M 21.4 13.1 L 19.4 17.8 L 20.9 18.5 L 22.9 13.7 L 21.4 13.1 Z" fill="black"/>
<path d="M 21.1 19 L 18.9 18 L 21.1 12.6 L 23.4 13.6 L 21.1 19 Z M 19.9 17.6 L 20.7 18 L 22.4 13.9 L 21.6 13.6 L 19.9 17.6 Z" fill="black"/>
<path d="M 21.1 12.5 L 23.5 13.5 L 21.2 19.1 L 18.8 18.1 L 21.1 12.5 Z M 22.3 14 L 21.6 13.7 L 20 17.6 L 20.7 17.8 L 22.3 14 Z" fill="black"/>
<path d="M 21.4 19.6 L 18.3 18.3 L 20.9 12 L 24 13.3 L 21.4 19.6 Z M 19.3 17.9 L 21 18.6 L 23 13.7 L 21.3 13 L 19.3 17.9 Z M 20.9 18.3 L 19.5 17.8 L 21.4 13.2 L 22.8 13.8 L 20.9 18.3 Z" fill="black"/>
<path d="M 2.4 13.7 L 1.7 14 L 3.3 17.8 L 4 17.6 L 2.4 13.7 Z" fill="black"/>
<path d="M 2.6 13.2 L 1.3 13.8 L 3.1 18.3 L 4.4 17.8 L 2.6 13.2 Z" fill="black"/>
<path d="M 2.6 13.1 L 1.1 13.7 L 3.1 18.4 L 4.6 17.8 L 2.6 13.1 Z" fill="black"/>
<path d="M 2.9 18.9 L 0.6 13.5 L 2.8 12.6 L 5.1 18 L 2.9 18.9 Z M 1.6 13.9 L 3.3 17.9 L 4.1 17.6 L 2.4 13.6 L 1.6 13.9 Z" fill="black"/>
<path d="M 2.6 13.1 L 1.1 13.7 L 3.1 18.5 L 4.6 17.8 L 2.6 13.1 Z" fill="black"/>
<path d="M 2.9 18.9 L 0.6 13.5 L 2.8 12.6 L 5.1 18 L 2.9 18.9 Z M 1.6 13.9 L 3.2 18 L 4.1 17.6 L 2.4 13.6 L 1.6 13.9 Z" fill="black"/>
<path d="M 2.9 12.5 L 5.2 18.1 L 2.8 19.1 L 0.5 13.5 L 2.9 12.5 Z M 4 17.6 L 2.4 13.7 L 1.7 14 L 3.3 17.8 L 4 17.6 Z" fill="black"/>
<path d="M 2.6 19.6 L 0 13.3 L 3.1 12 L 5.7 18.3 L 2.6 19.6 Z M 1 13.7 L 3 18.6 L 4.7 17.9 L 2.7 13 L 1 13.7 Z M 3.1 18.3 L 1.2 13.8 L 2.6 13.2 L 4.5 17.8 L 3.1 18.3 Z" fill="black"/>
<path d="M 6.4 20 L 6.1 20.7 L 10 22.3 L 10.2 21.6 L 6.4 20 Z" fill="black"/>
<path d="M 6.2 19.5 L 5.7 20.9 L 10.2 22.7 L 10.7 21.4 L 6.2 19.5 Z" fill="black"/>
<path d="M 6.2 19.4 L 5.5 20.9 L 10.2 22.9 L 10.9 21.4 L 6.2 19.4 Z" fill="black"/>
<path d="M 10.4 23.4 L 5 21.1 L 6 18.9 L 11.3 21.2 L 10.4 23.4 Z M 6 20.7 L 10 22.4 L 10.4 21.6 L 6.4 19.9 L 6 20.7 Z" fill="black"/>
<path d="M 6.1 19.4 L 5.5 20.9 L 10.2 22.9 L 10.9 21.4 L 6.1 19.4 Z" fill="black"/>
<path d="M 10.4 23.4 L 5 21.1 L 5.9 18.9 L 11.4 21.2 L 10.4 23.4 Z M 6 20.7 L 10 22.4 L 10.4 21.6 L 6.3 19.9 L 6 20.7 Z" fill="black"/>
<path d="M 5.9 18.8 L 11.5 21.1 L 10.5 23.5 L 4.9 21.2 L 5.9 18.8 Z M 10.3 21.6 L 6.4 20 L 6.1 20.7 L 10 22.3 L 10.3 21.6 Z" fill="black"/>
<path d="M 10.7 24 L 4.4 21.4 L 5.7 18.3 L 12 20.9 L 10.7 24 Z M 5.4 21 L 10.3 23 L 11 21.3 L 6.1 19.3 L 5.4 21 Z M 10.2 22.8 L 5.6 20.9 L 6.2 19.5 L 10.7 21.4 L 10.2 22.8 Z" fill="black"/>
</svg>
